<svg width="1187" height="222" viewBox="0 0 1187 222" fill="none" xmlns="http://www.w3.org/2000/svg">
<g clip-path="url(#clip0_3101_5889)">
<path d="M59.74 0H0V217.76H59.74V0Z" fill="white"/>
<path d="M239.81 92.61C232.39 77.56 222.21 66.34 209.27 58.92C196.32 51.5 181.33 47.79 164.29 47.79C146.36 47.79 130.53 51.44 116.82 58.75C103.09 66.05 92.3598 76.24 84.6098 89.29C76.8598 102.35 73.0098 117.51 73.0098 134.77C73.0098 152.03 76.9298 167.19 84.7898 180.25C92.6298 193.31 103.54 203.48 117.48 210.79C131.42 218.09 147.35 221.75 165.28 221.75C175.69 221.75 186.24 220.25 196.98 217.27C207.71 214.28 217.45 209.3 226.19 202.33C234.93 195.36 241.3 186.12 245.28 174.61L192.83 158.35C191.5 163.45 188.13 167.7 182.7 171.13C177.29 174.57 170.92 176.28 163.62 176.28C157.19 176.28 151.77 174.85 147.35 171.97C142.93 169.09 139.6 164.99 137.4 159.68C136.13 156.65 135.24 153.33 134.7 149.72H250.92C250.92 126.71 247.21 107.68 239.8 92.63L239.81 92.61ZM149.2 92.12C153.51 90.01 157.98 88.97 162.64 88.97C167.3 88.97 171.44 90.02 175.75 92.12C180.06 94.22 183.66 97.71 186.54 102.57C188.24 105.45 189.42 109 190.12 113.19H135.13C135.8 109 136.94 105.45 138.57 102.57C141.34 97.71 144.89 94.21 149.2 92.12Z" fill="white"/>
<path d="M352.18 164.64C349.52 165.75 347.3 166.3 345.53 166.3C341.32 166.3 338.33 164.97 336.57 162.32C334.8 159.66 333.91 155.24 333.91 149.04V101.57H368.11V51.78H333.91V0H274.17V51.78H249.27V101.57H274.17V165.3C274.17 183.45 279.15 197.39 289.1 207.12C299.07 216.86 314.34 221.73 334.92 221.73C342.65 221.73 350.63 219.96 358.81 216.41C367 212.88 373.64 208.89 378.73 204.46L358.49 161.31C356.93 162.42 354.83 163.52 352.19 164.62L352.18 164.64Z" fill="white"/>
<path d="M484.96 164.64C482.3 165.75 480.08 166.3 478.31 166.3C474.1 166.3 471.11 164.97 469.35 162.32C467.58 159.66 466.69 155.24 466.69 149.04V101.57H500.89V51.78H466.69V0H406.95V51.78H382.05V101.57H406.95V165.3C406.95 183.45 411.93 197.39 421.88 207.12C431.85 216.86 447.12 221.73 467.7 221.73C475.43 221.73 483.41 219.96 491.59 216.41C499.78 212.88 506.42 208.89 511.51 204.46L491.27 161.31C489.71 162.42 487.61 163.52 484.97 164.62L484.96 164.64Z" fill="white"/>
<path d="M679.96 92.61C672.54 77.56 662.36 66.34 649.42 58.92C636.47 51.5 621.48 47.79 604.44 47.79C586.51 47.79 570.68 51.44 556.97 58.75C543.24 66.05 532.51 76.24 524.76 89.29C517.01 102.35 513.16 117.51 513.16 134.77C513.16 152.03 517.08 167.19 524.94 180.25C532.78 193.31 543.69 203.48 557.63 210.79C571.57 218.09 587.5 221.75 605.43 221.75C615.84 221.75 626.39 220.25 637.13 217.27C647.86 214.28 657.6 209.3 666.34 202.33C675.08 195.36 681.45 186.12 685.43 174.61L632.98 158.35C631.65 163.45 628.28 167.7 622.85 171.13C617.44 174.57 611.07 176.28 603.77 176.28C597.34 176.28 591.92 174.85 587.5 171.97C583.08 169.09 579.75 164.99 577.55 159.68C576.28 156.65 575.39 153.33 574.85 149.72H691.07C691.07 126.71 687.36 107.68 679.95 92.63L679.96 92.61ZM589.34 92.12C593.65 90.01 598.12 88.97 602.78 88.97C607.44 88.97 611.58 90.02 615.89 92.12C620.2 94.22 623.8 97.71 626.68 102.57C628.38 105.45 629.56 109 630.26 113.19H575.27C575.94 109 577.08 105.45 578.71 102.57C581.48 97.71 585.03 94.21 589.34 92.12Z" fill="white"/>
<path d="M760.79 83.0101V51.7901H701.05V217.76H760.79V134.44C760.79 129.13 763.5 124.59 768.93 120.83C774.34 117.07 781.54 114.25 790.5 112.36C799.46 110.49 809.14 109.54 819.54 109.54V51.1201C807.59 51.1201 796.09 54.2201 785.02 60.4201C775.51 65.7501 767.44 73.2801 760.79 83.0101Z" fill="white"/>
<path d="M995.47 51.78H949.66L877.82 118.23L898.54 0H861.04L822.87 217.76H860.37L868.68 170.33L893.03 147.57L929.08 217.76H971.9L920.63 121.76L995.47 51.78Z" fill="white"/>
<path d="M993.44 217.76H1030.28L1053.56 83.6504H1016.72L993.44 217.76Z" fill="white"/>
<path d="M1019.79 51.78H1056.63L1065.73 0H1028.89L1019.79 51.78Z" fill="white"/>
<path d="M1136.11 83.65H1181.01L1186.33 51.78H1141.45L1150.13 0H1113.29L1104.63 51.78H1077.12L1071.8 83.65H1099.3L1084.75 170.62C1082.09 186.77 1084.52 199.33 1092.04 208.3C1099.56 217.26 1111.96 221.74 1129.22 221.74C1134.97 221.74 1141 220.74 1147.31 218.75C1153.62 216.76 1160.1 213.77 1166.73 209.79L1157.44 180.91C1153.45 183.13 1150.02 184.79 1147.15 185.89C1144.26 187 1141.61 187.55 1139.18 187.55C1132.32 187.55 1127.58 185.61 1124.92 181.74C1122.26 177.87 1121.48 172.06 1122.59 164.31L1136.12 83.65H1136.11Z" fill="white"/>
</g>
<defs>
<clipPath id="clip0_3101_5889">
<rect width="1186.33" height="221.74" fill="white"/>
</clipPath>
</defs>
</svg>
